<?xml version="1.0" encoding="UTF-8" standalone="no"?>
<svg
   xmlns:dc="http://purl.org/dc/elements/1.1/"
   xmlns:cc="http://creativecommons.org/ns#"
   xmlns:rdf="http://www.w3.org/1999/02/22-rdf-syntax-ns#"
   xmlns:svg="http://www.w3.org/2000/svg"
   xmlns="http://www.w3.org/2000/svg"
   xmlns:sodipodi="http://sodipodi.sourceforge.net/DTD/sodipodi-0.dtd"
   xmlns:inkscape="http://www.inkscape.org/namespaces/inkscape"
   viewBox="0 0 314 190.43374"
   version="1.1"
   id="svg20989"
   sodipodi:docname="logo.svg"
   width="314"
   height="190.43375"
   inkscape:version="0.92.4 (5da689c313, 2019-01-14)">
  <defs
     id="defs20933">
    <style
       id="style20931">.cls-1,.cls-2{fill:#fff}.cls-1,.cls-11,.cls-14,.cls-16,.cls-18,.cls-20,.cls-22,.cls-24,.cls-26,.cls-28,.cls-3,.cls-30,.cls-5,.cls-7,.cls-9{fill-rule:evenodd}.cls-3{fill:#cc6b39}.cls-10,.cls-12,.cls-13,.cls-15,.cls-17,.cls-19,.cls-21,.cls-23,.cls-25,.cls-27,.cls-29,.cls-31,.cls-4,.cls-6,.cls-8{fill:none}.cls-4{stroke:#cc6b39}.cls-10,.cls-12,.cls-15,.cls-17,.cls-19,.cls-21,.cls-23,.cls-25,.cls-27,.cls-29,.cls-31,.cls-4,.cls-6,.cls-8{stroke-miterlimit:3.864;stroke-width:.5px}.cls-5{fill:#822a85}.cls-6{stroke:#822a85}.cls-7{fill:#ec008c}.cls-8{stroke:#ec008c}.cls-9{fill:#5f6db3}.cls-10{stroke:#5f6db3}.cls-11{fill:#46065c}.cls-12{stroke:#46065c}.cls-13{stroke:#000;stroke-miterlimit:3.864;stroke-width:.321px}.cls-14{fill:#b82837}.cls-15{stroke:#b82837}.cls-16{fill:#ed1c24}.cls-17{stroke:#ed1c24}.cls-18{fill:#f37021}.cls-19{stroke:#f37021}.cls-20{fill:#50b848}.cls-21{stroke:#50b848}.cls-22{fill:#639144}.cls-23{stroke:#639144}.cls-24{fill:#007196}.cls-25{stroke:#007196}.cls-26{fill:#00abbd}.cls-27{stroke:#00abbd}.cls-28{fill:#fdb933}.cls-29{stroke:#fdb933}.cls-30{fill:#e28f38}.cls-31{stroke:#e28f38}</style>
  </defs>
  <g
     transform="translate(-295.68545,-30.866948)">
    <path
       class="cls-1"
       d="m 372.0623,160.20381 h -7.75953 v 21.5305 l -8.01002,6.00099 v -27.53149 h -7.51167 v 31.04859 h 6.76024 l 8.76145,-6.52282 v 6.52282 h 7.75953 z"
       style="fill:#000000;fill-rule:evenodd;stroke-width:2.60912514"
       inkscape:connector-curvature="0" />
    <path
       class="cls-1"
       d="m 391.59161,160.20381 h -7.51168 v 31.04859 h 15.77217 v -2.25429 h -8.26049 z"
       style="fill:#000000;fill-rule:evenodd;stroke-width:2.60912514"
       inkscape:connector-curvature="0" />
    <path
       class="cls-1"
       d="m 336.76345,191.24457 h -7.50906 v -33.29505 l -8.26049,6.00099 v 27.29406 h -7.2612 v -33.29505 l -8.26049,6.00099 v 27.29406 h -7.51167 v -37.801 h 7.51167 v 7.01071 l 9.2624,-7.01071 h 6.2619 v 7.01071 l 9.51026,-7.01071 h 6.2619 z"
       style="fill:#000000;fill-rule:evenodd;stroke-width:2.60912514"
       inkscape:connector-curvature="0" />
    <path
       class="cls-2"
       d="m 430.89286,160.20381 h 7.51167 v 30.79289 h -7.51167 z"
       style="fill:#000000;stroke-width:2.60912514"
       inkscape:connector-curvature="0" />
    <path
       class="cls-1"
       d="m 399.60162,160.20381 h 24.52578 v 2.25428 h -8.50314 v 28.79431 h -7.51167 v -28.79431 h -8.51097 z"
       style="fill:#000000;fill-rule:evenodd;stroke-width:2.60912514"
       inkscape:connector-curvature="0" />
    <path
       class="cls-1"
       d="m 450.41955,158.45048 c 0,-3.00311 3.50405,-5.00691 7.01072,-5.00691 h 11.51407 v 6.76024 h -3.00311 v -4.00762 h -8.01001 v 32.29575 h 3.50405 a 4.4146396,4.4146396 0 0 0 4.50596,-3.99979 v -2.25428 h 3.00311 v 2.25428 a 7.219449,7.219449 0 0 1 -7.51167,6.50977 h -11.01312 z"
       style="fill:#000000;fill-rule:evenodd;stroke-width:2.60912514"
       inkscape:connector-curvature="0" />
    <path
       class="cls-1"
       d="m 477.45791,160.20381 h 7.50906 v 13.76835 l 8.01002,-6.00099 v -7.76736 h 7.75954 v 31.04859 h -7.75693 v -20.28334 l -8.01002,6.00099 v 14.28235 h -7.51167 z"
       style="fill:#000000;fill-rule:evenodd;stroke-width:2.60912514"
       inkscape:connector-curvature="0" />
    <path
       class="cls-2"
       d="m 547.80514,160.20381 h 7.51167 v 30.79289 h -7.51167 z"
       style="fill:#000000;stroke-width:2.60912514"
       inkscape:connector-curvature="0" />
    <path
       class="cls-1"
       d="m 574.8435,162.45809 v 26.78528 h 2.25429 c 2.25428,0 4.00501,-1.25238 4.00501,-3.0031 v -2.50476 h 2.75262 v 2.50476 c 0,3.0031 -3.25358,5.00691 -6.76024,5.00691 h -9.51287 v -27.03836 c 0,-2.25429 3.0031,-3.75454 4.75643,-3.75454 h 11.51668 v 5.75834 h -2.75262 v -3.75453 z"
       style="fill:#000000;fill-rule:evenodd;stroke-width:2.60912514"
       inkscape:connector-curvature="0" />
    <path
       class="cls-1"
       d="m 592.86734,160.20381 h 15.77216 v 2.25428 h -8.26049 v 10.00861 h 6.76024 v 2.0038 h -6.76024 v 14.51978 h 8.26049 v 2.26212 h -15.77216 z"
       style="fill:#000000;fill-rule:evenodd;stroke-width:2.60912514"
       inkscape:connector-curvature="0" />
    <path
       class="cls-1"
       d="m 520.01796,162.45809 h 8.26049 v 26.78528 h -8.26049 z m 10.51477,-2.25428 h -12.5238 c -2.75262,0 -5.25738,1.75333 -5.25738,4.00501 v 23.03074 c 0,2.00381 2.0038,4.00501 5.25738,4.00501 h 12.76645 c 2.25429,0 5.00691,-2.00381 5.00691,-4.00501 v -23.03074 c 0.005,-2.0012 -2.49693,-4.00501 -5.25217,-4.00501 z"
       style="fill:#000000;fill-rule:evenodd;stroke-width:2.60912514"
       inkscape:connector-curvature="0" />
    <path
       class="cls-3"
       d="m 452.17288,32.528882 -22.78027,24.283127 22.78027,87.371771 z"
       inkscape:connector-curvature="0"
       style="fill:#cc6b39;fill-rule:evenodd;stroke-width:2.60912514" />
    <path
       class="cls-4"
       d="m 452.17288,32.528882 -22.78027,24.283127 22.78027,87.371771 z"
       inkscape:connector-curvature="0"
       style="fill:none;stroke:#cc6b39;stroke-width:1.30456257px;stroke-miterlimit:3.86400008" />
    <path
       class="cls-5"
       d="m 339.76655,56.561533 3.75454,28.53861 104.3937,59.331507 z"
       inkscape:connector-curvature="0"
       style="fill:#822a85;fill-rule:evenodd;stroke-width:2.60912514" />
    <path
       class="cls-6"
       d="m 339.76655,56.561533 3.75454,28.53861 104.3937,59.331507 z"
       inkscape:connector-curvature="0"
       style="fill:none;stroke:#822a85;stroke-width:1.30456257px;stroke-miterlimit:3.86400008" />
    <path
       class="cls-7"
       d="M 447.91479,144.43165 378.06851,68.078211 339.76655,56.561533 Z"
       inkscape:connector-curvature="0"
       style="fill:#ec008c;fill-rule:evenodd;stroke-width:2.60912514" />
    <path
       class="cls-8"
       d="M 447.91479,144.43165 378.06851,68.078211 339.76655,56.561533 Z"
       inkscape:connector-curvature="0"
       style="fill:none;stroke:#ec008c;stroke-width:1.30456257px;stroke-miterlimit:3.86400008" />
    <path
       class="cls-9"
       d="M 444.16287,144.9326 337.51488,87.103951 296.95864,88.105855 Z"
       inkscape:connector-curvature="0"
       style="fill:#5f6db3;fill-rule:evenodd;stroke-width:2.60912514" />
    <path
       class="cls-10"
       d="M 444.16287,144.9326 337.51488,87.103951 296.95864,88.105855 Z"
       inkscape:connector-curvature="0"
       style="fill:none;stroke:#5f6db3;stroke-width:1.30456257px;stroke-miterlimit:3.86400008" />
    <path
       class="cls-11"
       d="m 296.95864,88.103246 10.01382,21.530504 137.19041,35.29885 z"
       inkscape:connector-curvature="0"
       style="fill:#46065c;fill-rule:evenodd;stroke-width:2.60912514" />
    <path
       class="cls-12"
       d="m 296.95864,88.103246 10.01382,21.530504 137.19041,35.29885 z"
       inkscape:connector-curvature="0"
       style="fill:none;stroke:#46065c;stroke-width:1.30456257px;stroke-miterlimit:3.86400008" />
    <path
       class="cls-14"
       d="m 393.84328,38.535088 -9.26239,27.539315 65.59079,78.106767 z"
       inkscape:connector-curvature="0"
       style="fill:#b82837;fill-rule:evenodd;stroke-width:2.60912514" />
    <path
       class="cls-15"
       d="m 393.84328,38.535088 -9.26239,27.539315 65.59079,78.106767 z"
       inkscape:connector-curvature="0"
       style="fill:none;stroke:#b82837;stroke-width:1.30456257px;stroke-miterlimit:3.86400008" />
    <path
       class="cls-16"
       d="M 450.17168,144.18117 422.13402,57.819132 393.84328,38.535088 Z"
       inkscape:connector-curvature="0"
       style="fill:#ed1c24;fill-rule:evenodd;stroke-width:2.60912514" />
    <path
       class="cls-17"
       d="M 450.17168,144.18117 422.13402,57.819132 393.84328,38.535088 Z"
       inkscape:connector-curvature="0"
       style="fill:none;stroke:#ed1c24;stroke-width:1.30456257px;stroke-miterlimit:3.86400008" />
    <path
       class="cls-18"
       d="m 452.17288,32.528882 22.5324,24.283127 -22.5324,87.371771 z"
       inkscape:connector-curvature="0"
       style="fill:#f37021;fill-rule:evenodd;stroke-width:2.60912514" />
    <path
       class="cls-19"
       d="m 452.17288,32.528882 22.5324,24.283127 -22.5324,87.371771 z"
       inkscape:connector-curvature="0"
       style="fill:none;stroke:#f37021;stroke-width:1.30456257px;stroke-miterlimit:3.86400008" />
    <path
       class="cls-20"
       d="M 564.07825,56.561533 560.5742,85.100143 456.67884,144.43165 Z"
       inkscape:connector-curvature="0"
       style="fill:#50b848;fill-rule:evenodd;stroke-width:2.60912514" />
    <path
       class="cls-21"
       d="M 564.07825,56.561533 560.5742,85.100143 456.67884,144.43165 Z"
       inkscape:connector-curvature="0"
       style="fill:none;stroke:#50b848;stroke-width:1.30456257px;stroke-miterlimit:3.86400008" />
    <path
       class="cls-22"
       d="M 456.67884,144.43165 525.52321,68.078211 564.07825,56.561533 Z"
       inkscape:connector-curvature="0"
       style="fill:#639144;fill-rule:evenodd;stroke-width:2.60912514" />
    <path
       class="cls-23"
       d="M 456.67884,144.43165 525.52321,68.078211 564.07825,56.561533 Z"
       inkscape:connector-curvature="0"
       style="fill:none;stroke:#639144;stroke-width:1.30456257px;stroke-miterlimit:3.86400008" />
    <path
       class="cls-24"
       d="m 460.18289,144.9326 107.14894,-57.828649 41.0572,0.751428 z"
       inkscape:connector-curvature="0"
       style="fill:#007196;fill-rule:evenodd;stroke-width:2.60912514" />
    <path
       class="cls-25"
       d="m 460.18289,144.9326 107.14894,-57.828649 41.0572,0.751428 z"
       inkscape:connector-curvature="0"
       style="fill:none;stroke:#007196;stroke-width:1.30456257px;stroke-miterlimit:3.86400008" />
    <path
       class="cls-26"
       d="M 608.3812,87.855379 597.86642,109.63636 460.18289,144.93521 Z"
       inkscape:connector-curvature="0"
       style="fill:#00abbd;fill-rule:evenodd;stroke-width:2.60912514" />
    <path
       class="cls-27"
       d="M 608.3812,87.855379 597.86642,109.63636 460.18289,144.93521 Z"
       inkscape:connector-curvature="0"
       style="fill:none;stroke:#00abbd;stroke-width:1.30456257px;stroke-miterlimit:3.86400008" />
    <path
       class="cls-28"
       d="m 509.49014,38.535088 9.01192,27.539315 -64.32537,78.106767 z"
       inkscape:connector-curvature="0"
       style="fill:#fdb933;fill-rule:evenodd;stroke-width:2.60912514" />
    <path
       class="cls-29"
       d="m 509.49014,38.535088 9.01192,27.539315 -64.32537,78.106767 z"
       inkscape:connector-curvature="0"
       style="fill:none;stroke:#fdb933;stroke-width:1.30456257px;stroke-miterlimit:3.86400008" />
    <path
       class="cls-30"
       d="M 454.17669,144.18117 482.21435,57.819132 509.49014,38.535088 Z"
       inkscape:connector-curvature="0"
       style="fill:#e28f38;fill-rule:evenodd;stroke-width:2.60912514" />
    <path
       class="cls-31"
       d="M 454.17669,144.18117 482.21435,57.819132 509.49014,38.535088 Z"
       inkscape:connector-curvature="0"
       style="fill:none;stroke:#e28f38;stroke-width:1.30456257px;stroke-miterlimit:3.86400008" />
    <path
       class="cls-1"
       d="m 352.03466,206.01744 v 15.02073 h 5.25739 v -1.75333 h -3.25358 v -5.00691 h 3.0031 v -1.75334 h -3.0031 v -4.75382 h 3.25358 v -1.75333 z"
       style="fill:#000000;fill-rule:evenodd;stroke-width:2.60912514"
       inkscape:connector-curvature="0" />
    <path
       class="cls-1"
       d="m 367.55635,209.52149 v -0.26091 l 3.50405,11.76715 h 2.00381 v -15.01029 h -2.00381 v 5.25738 l 0.50095,6.00099 v 0.26091 l -3.75453,-11.51928 h -1.75333 v 15.02073 h 2.00381 v -5.50786 l -0.26091,-5.00692 z"
       style="fill:#000000;fill-rule:evenodd;stroke-width:2.60912514"
       inkscape:connector-curvature="0" />
    <path
       class="cls-1"
       d="m 384.58089,212.5272 v -5.00691 h 0.26091 c 1.50286,0 1.75333,1.25238 1.75333,2.50476 -0.013,1.75333 -0.514,2.75263 -2.01424,2.50215 z m -1.99337,8.51097 h 2.0038 v -7.51167 l 2.75263,7.51167 h 2.00381 l -2.76567,-7.51167 c 1.75333,-0.26092 2.0038,-2.50215 2.0038,-4.00501 0,-3.75453 -2.25428,-4.00501 -3.75453,-4.00501 h -2.50476 v 15.52169 z"
       style="fill:#000000;fill-rule:evenodd;stroke-width:2.60912514"
       inkscape:connector-curvature="0" />
    <path
       class="cls-2"
       d="m 397.84829,206.01744 h 2.00381 v 15.2712 h -2.00381 z"
       style="fill:#000000;stroke-width:2.60912514"
       inkscape:connector-curvature="0" />
    <path
       class="cls-1"
       d="m 415.37639,206.26791 a 3.6188565,3.6188565 0 0 0 -1.75333,-0.50095 c -4.00501,0 -4.50596,5.00691 -4.50596,8.01001 0,3.25358 0.50095,7.50906 4.75643,7.50906 a 1.8263875,1.8263875 0 0 0 1.50286,-0.50095 v -1.75333 a 2.2568932,2.2568932 0 0 1 -1.25238,0.26091 c -2.75263,0 -3.0031,-3.75453 -3.0031,-5.75834 0,-2.0038 0,-6.00098 2.75262,-6.00098 a 1.9124887,1.9124887 0 0 1 1.25238,0.50095 v -1.75333 z"
       style="fill:#000000;fill-rule:evenodd;stroke-width:2.60912514"
       inkscape:connector-curvature="0" />
    <path
       class="cls-1"
       d="m 423.88475,206.01744 v 15.02073 h 2.0038 v -7.50906 h 3.00311 v 7.50906 h 2.00381 v -15.02073 h -2.00381 v 5.75833 h -3.00311 v -5.75833 z"
       style="fill:#000000;fill-rule:evenodd;stroke-width:2.60912514"
       inkscape:connector-curvature="0" />
    <path
       class="cls-2"
       d="m 440.40573,206.01744 h 2.0038 v 15.2712 h -2.0038 z"
       style="fill:#000000;stroke-width:2.60912514"
       inkscape:connector-curvature="0" />
    <path
       class="cls-1"
       d="m 453.67574,209.52149 v -0.26091 l 3.50405,11.76715 h 1.75333 v -15.01029 h -2.0038 v 5.25738 l 0.50095,6.00099 v 0.26091 l -3.50406,-11.51928 h -2.00381 v 15.02073 h 2.00381 v -5.50786 l -0.26091,-5.00692 z"
       style="fill:#000000;fill-rule:evenodd;stroke-width:2.60912514"
       inkscape:connector-curvature="0" />
    <path
       class="cls-1"
       d="m 472.20052,213.02815 v 1.75334 h 1.75334 v 0.75142 c 0,3.50406 -1.00191,3.75454 -1.75334,3.75454 -1.0019,0 -1.75333,-0.50096 -1.75333,-5.75834 0,-3.75453 0,-6.00099 1.75333,-6.00099 1.25238,0 1.50286,1.0019 1.75334,2.00381 l 2.0038,-0.75143 a 3.3918626,3.3918626 0 0 0 -3.75714,-3.01354 c -3.49361,0 -3.75453,3.50405 -3.75453,7.75954 0,4.25548 0.50096,7.75953 4.00501,7.75953 4.00501,0 3.50406,-5.00691 3.50406,-8.01001 v -0.26091 z"
       style="fill:#000000;fill-rule:evenodd;stroke-width:2.60912514"
       inkscape:connector-curvature="0" />
    <path
       class="cls-1"
       d="m 495.9827,206.01744 v 15.02073 h 5.50786 v -1.75333 h -3.50405 v -13.2674 z"
       style="fill:#000000;fill-rule:evenodd;stroke-width:2.60912514"
       inkscape:connector-curvature="0" />
    <path
       class="cls-2"
       d="m 509.75366,206.01744 h 2.00381 v 15.2712 h -2.00381 z"
       style="fill:#000000;stroke-width:2.60912514"
       inkscape:connector-curvature="0" />
    <path
       class="cls-1"
       d="m 520.01796,206.01744 3.0031,15.02073 h 1.75333 l 2.75263,-15.02073 h -1.75333 l -1.0019,5.25738 -0.75143,5.00691 v 1.00191 h -0.26092 l -1.73767,-11.2662 z"
       style="fill:#000000;fill-rule:evenodd;stroke-width:2.60912514"
       inkscape:connector-curvature="0" />
    <path
       class="cls-1"
       d="m 536.03799,206.01744 v 15.02073 h 5.50786 v -1.75333 h -3.50405 v -5.00691 h 3.0031 v -1.75334 h -3.0031 v -4.75382 h 3.50405 v -1.75333 z"
       style="fill:#000000;fill-rule:evenodd;stroke-width:2.60912514"
       inkscape:connector-curvature="0" />
    <path
       class="cls-1"
       d="m 554.81586,206.26791 a 3.3657713,3.3657713 0 0 0 -2.25428,-0.50095 3.5640648,3.5640648 0 0 0 -3.50406,4.00501 c 0,4.005 4.25548,4.50596 4.25548,7.51167 0,1.25238 -0.50095,2.00381 -1.75333,2.00381 a 2.8439463,2.8439463 0 0 1 -2.00381,-0.75143 v 2.00381 a 3.4936185,3.4936185 0 0 0 2.25429,0.75142 3.5640648,3.5640648 0 0 0 3.50405,-4.005 5.6852835,5.6852835 0 0 0 -2.25428,-4.50596 l -1.50286,-1.75333 a 2.1133913,2.1133913 0 0 1 -0.50095,-1.75334 1.9359708,1.9359708 0 0 1 1.75333,-2.0038 2.2725479,2.2725479 0 0 1 1.75334,0.75142 z"
       style="fill:#000000;fill-rule:evenodd;stroke-width:2.60912514"
       inkscape:connector-curvature="0" />
  </g>
</svg>
